<?xml version="1.0" encoding="utf-8"?>
<!-- Generator: Adobe Illustrator 23.0.3, SVG Export Plug-In . SVG Version: 6.00 Build 0)  -->
<svg version="1.1" id="Travel_Experts_logo_xA0_Image_1_"
	 xmlns="http://www.w3.org/2000/svg" xmlns:xlink="http://www.w3.org/1999/xlink" x="0px" y="0px" viewBox="0 0 500 500"
	 style="enable-background:new 0 0 500 500;" xml:space="preserve">
<style type="text/css">
	.st0{fill:#2E92ED;}
	.st1{fill:#FFFFFF;}
</style>
<path class="st0" d="M161,249.1c3,35.7-31.3,78.2-80.9,74.2C50.7,321,8.9,293,12.7,241.9c2.2-29.2,30.1-71,81.6-67.1
	C126.8,177.2,163.3,208.3,161,249.1z"/>
<path d="M116,268.6c0-5,0.4-10.5-0.1-15.9c-0.8-8,2.6-12.5,9.6-16.2c8.3-4.4,16.3-9.8,21.1-18.6c2.1-3.8,0.8-6.2-2.9-6.7
	c-3.2-0.5-6.9-0.6-9.8,0.6c-7.9,3.3-15.7,7.2-23.3,11.2c-3.5,1.8-6.8,2.5-10.1,0.6c-4.9-2.7-9.5-5.8-14.3-8.6
	c-2.6-1.5-3.7-3.1-2.7-6.4c0.5-1.5-0.9-4-2.1-5.4c-0.6-0.7-2.8,0.2-4.3,0.2c-3.6,0.1-7.6,1.1-10.7-0.1c-4.9-1.9-9.2-5.6-13.9-8.2
	c-1.8-1-4-1-6-1.4c-0.2,0.5-0.5,1-0.7,1.5c7.2,8.1,14.4,16.2,21.5,24.3c4.1,4.7,8.3,9.3,12.2,14.3c2.8,3.6,2,7.2-1.6,9.8
	c-7.2,5-14.5,10-21.8,14.9c-3.9,2.6-7.8,3.6-12.1,0c-3.9-3.2-8.4-5.6-12.9-8c-1.5-0.8-3.6-0.3-5.4-0.3c0.5,1.4,0.6,3.1,1.5,4.2
	c2.5,3.1,5.2,6,7.9,8.9c4,4.3,4.2,6.9,0.9,11.6c-0.7,0.9-0.9,2.1-1.4,3.3c1,0.4,1.4,0.7,1.8,0.6c8.4-1.8,8.6-1.5,11,7
	c1.4,4.9,3.4,9.6,5.2,14.4c0.7,0,1.4,0.1,2.1,0.1c0.9-2.8,2.3-5.5,2.4-8.3c0.2-4.7-0.3-9.5-0.9-14.3c-0.5-4,1.4-6.1,4.8-7.6
	c8-3.7,16-7.3,23.9-11.3c5.7-2.9,8.9-2.4,11,3.4c3.1,8.4,5.6,17,8.5,25.4c2.6,7.6,5.4,15.1,8.1,22.7c0.5-0.1,1.1-0.2,1.6-0.3
	c2-4.7,2.5-9.6,1.8-14.9c-0.8-5.9-1.8-12.2,4.9-16c2.6-1.5,3-3.8,0.9-6C120,271.5,118.2,270.4,116,268.6z"/>
<path class="st1" d="M334.8,239.9c5.8,0,11,0,16.3,0c-0.2,3.6-1.9,4.9-4.9,4.5c-0.3,0-0.7,0-1,0c-14.9,0.1-14.9,0.1-20.4,15.5
	c5.7,0,11.2,0,16.7,0c0.3,0.5,0.6,1.1,0.8,1.6c-1.5,1.2-3,3.2-4.6,3.3c-6.8,0.4-13.6,0.2-21.3,0.2c1.3-2.8,2.4-5,3.4-7.2
	c5.1-10.3,10-20.7,15.3-30.8c0.8-1.6,3.3-3.2,5.1-3.3c6.4-0.4,12.9-0.2,19.4-0.2c0.2,0.6,0.4,1.2,0.7,1.8c-1.7,0.9-3.3,2.2-5.1,2.7
	c-1.7,0.5-3.6,0.1-5.5,0.1C338.8,228.2,338.8,228.2,334.8,239.9z"/>
<path class="st1" d="M382.1,262.5c-4.7,5-4.2,14.6-11.9,17.9c-0.6-0.4-1.2-0.8-1.8-1.2c3.8-7.8,7.6-15.7,11.5-23.5
	c2.1-4.3,4.1-8.8,6.5-12.9c1.1-1.8,3.3-2.9,5.1-4.4c0.4,0.4,0.8,0.7,1.1,1.1c0,0.9,0,1.7,0,1.8c4.1-0.9,8-2.3,12-2.5
	c4.3-0.2,6.6,2.5,6.6,7c0,9.7-12.8,21.3-22.5,20C386.5,265.4,384.4,263.7,382.1,262.5z M399.7,242.9c-5.8,0-12.4,5.5-14,11.7
	c-1.2,4.5,1,7.2,5.6,7c6-0.3,12.9-6.4,14-12.4C406,245.1,404,242.9,399.7,242.9z"/>
<path class="st1" d="M228.2,241.6c2.5-1.1,4.7-2,6.9-2.9c0.3,0.4,0.6,0.7,0.8,1.1c-3.8,7.8-7.6,15.7-11.6,23.5
	c-1.5,2.9-4.2,2.5-5.7-0.4c-3,1-5.9,2.4-8.9,2.9c-7,1.1-11-3.4-9-10.2c2.5-8.4,8.3-13.9,16.6-16.4
	C221.6,237.8,225.9,237.9,228.2,241.6z M211.7,261.5c6.1-0.2,13-6.1,14.2-12.2c0.8-4-1.2-6.4-5.3-6.4c-6.2-0.1-13.9,6.8-14.5,12.9
	C205.7,259.5,207.8,261.6,211.7,261.5z"/>
<path class="st1" d="M283.1,259.5c-5,4.1-10.5,6.9-17.2,6.3c-5.1-0.5-7.5-3.7-6.8-8.5c1.4-10.2,12.9-19.4,23.2-18.7
	c4.3,0.3,6.9,2.1,6.8,6.8c-0.1,5.6-2,7.6-7,7.7c-4.3,0-8.6,0.1-13,0c-2.5-0.1-4.8,0.4-4.1,3.3c0.4,1.9,2.4,4.9,3.5,4.8
	c3.3-0.2,6.5-1.8,9.7-2.7c1.5-0.4,3.1-0.5,4.6-0.8C282.9,258.2,283,258.9,283.1,259.5z M267.8,249.2c4.9,0,8.5,0.2,12-0.1
	c1.4-0.1,2.6-1.5,3.9-2.3c-1.2-1.3-2.3-3.4-3.8-3.7C275.3,242.2,271.8,244.6,267.8,249.2z"/>
<path class="st1" d="M434.2,259.5c-5.1,4-10.7,7.1-17.6,6.2c-4.8-0.6-7.1-3.7-6.5-8.3c1.3-10.4,13.1-19.8,23.5-18.8
	c4.7,0.5,6.7,2.7,6.5,7c-0.3,5.5-2,7.3-6.8,7.3c-4.3,0-8.6,0.1-13,0c-2.7-0.1-5.1,0.5-4.3,3.6c0.5,1.9,2.9,4.6,4.3,4.6
	c2.9-0.1,5.8-1.8,8.7-2.8c1.5-0.5,3.1-0.7,4.7-1C433.9,258.1,434,258.8,434.2,259.5z M419.2,249.2c4.5,0,8,0.2,11.6-0.1
	c1.4-0.1,2.7-1.4,4-2.2c-1.4-1.3-2.6-3.6-4.1-3.8C426,242.3,422.5,244.6,419.2,249.2z"/>
<g>
	<path class="st1" d="M163,264.4c5.8-11.8,11.5-23.5,17.7-36c-3.6-0.2-6.4-0.3-9.3-0.4c-0.3-0.4-0.5-0.7-0.8-1.1
		c1.4-1.1,2.7-3.1,4.1-3.2c7.8-0.3,15.6-0.2,23.5-0.2c0.1,4-1.9,5.1-5,4.6c-5.3-0.9-8,1.5-10.1,6.2c-4,9.1-8.8,17.9-13.1,26.9
		C168.6,264.4,166.8,266,163,264.4z"/>
	<path class="st1" d="M163,264.4c5.8-11.8,11.5-23.5,17.7-36c-3.6-0.2-6.4-0.3-9.3-0.4c-0.3-0.4-0.5-0.7-0.8-1.1
		c1.4-1.1,2.7-3.1,4.1-3.2c7.8-0.3,15.6-0.2,23.5-0.2c0.1,4-1.9,5.1-5,4.6c-5.3-0.9-8,1.5-10.1,6.2c-4,9.1-8.8,17.9-13.1,26.9
		C168.6,264.4,166.8,266,163,264.4z"/>
</g>
<path class="st1" d="M362.3,255.3c-6.6,2.2-10.1,10.6-19.7,9.5c5.3-3.9,9.6-7.5,14.3-10.5c3.5-2.2,4.9-4.5,2.8-8.4c-1-1.8-1.4-4-2-6
	c7.6-3,6.3,3.8,8.4,6.9c5.6-1.7,8.7-9.1,16.8-7.2c-4.5,3.4-8.3,6.4-12.4,9.2c-2.4,1.6-2.8,3.2-1.7,5.8c1.4,3.2,2.3,6.5,3.5,9.9
	C363.3,267.1,365.7,258.2,362.3,255.3z"/>
<path class="st1" d="M499.3,243.8c-2.8-0.2-4.9-0.8-6.9-0.5c-1.8,0.2-3.4,1.2-5.1,1.9c0.7,1.3,1.1,3,2.2,3.7
	c6.4,4.4,6.7,8.4,0.3,13.3c-3.9,3-8.4,5.2-13.3,2.6c-1.2-0.6-1.5-3.1-2.2-4.7c1.8,0,4.2-0.8,5.4,0.1c3.5,2.5,6.1,1,8.2-1.5
	c2.4-2.8-0.5-4-2.3-5.3c-5.4-3.9-5.6-6.8-0.5-11.3C490.3,237.3,496.4,237.4,499.3,243.8z"/>
<path class="st1" d="M286.3,264.2c7.3-14.9,14.6-29.8,22.1-44.5c0.7-1.5,3.2-2.1,4.8-3.1c0.4,0.4,0.7,0.9,1.1,1.3
	c-4.9,10.1-9.8,20.2-14.8,30.3c-2.2,4.5-4.2,9.1-6.8,13.3c-1.1,1.8-3.4,2.9-5.2,4.3C287.1,265.3,286.7,264.8,286.3,264.2z"/>
<path class="st1" d="M239.6,265c0-8.7,0-16.9,0-25.4c1.4,0,3.1,0,5.1,0c0,4.7,0,9.5,0,14.6c8-3.8,10.7-14.3,20.4-15.4
	C256.6,247.6,248.4,256,239.6,265z"/>
<path class="st1" d="M459.7,264.5c2.5-5.1,5.1-10.1,7.3-15.2c0.8-1.9,3.7-3.8,0.8-6.4c-0.3-0.2,0.9-3.1,1.6-3.2
	c4.3-0.6,4.6-4.4,6-7.2c1.4-2.9,3.1-4.1,6.6-2.7c-1.4,2.8-2.7,5.6-4.2,8.8c1.5,0.4,2.8,0.8,4.8,1.3c-1.3,1.6-2.5,3.8-3.3,3.7
	c-4.6-0.6-5.4,2.9-6.8,5.8c-2,4-4.1,7.9-5.9,12.1C465.3,264.5,463.5,265.9,459.7,264.5z"/>
<path class="st1" d="M178.3,264.4c3.8-7.7,7.6-15.5,11.5-23.1c0.5-1,2.2-1.7,3.4-2c0.7-0.1,1.6,1,2.4,1.5c3.3-0.8,7.1-1.7,10.9-2.6
	c0.3,0.9,0.6,1.8,0.9,2.6c-2.2,0.8-4.4,2.1-6.6,2.3c-4.6,0.3-7.5,2.7-9.5,6.3c-2.3,4-4,8.4-6.5,12.3c-1.1,1.8-3.4,2.7-5.2,4.1
	C179.1,265.3,178.7,264.9,178.3,264.4z"/>
<path class="st1" d="M437.4,264.3c3.7-7.6,7.4-15.2,11.3-22.7c0.6-1.1,2.4-1.9,3.8-2.2c0.6-0.1,1.5,1.2,1.9,1.5
	c3.8-0.8,7.5-1.7,11.3-2.5c0.3,0.9,0.5,1.7,0.8,2.6c-2.1,0.8-4.2,2.1-6.4,2.2c-4.6,0.2-7.6,2.4-9.7,6c-2.3,4-4.1,8.4-6.5,12.3
	c-1.1,1.8-3.3,3-5,4.4C438.4,265.3,437.9,264.8,437.4,264.3z"/>
<path class="st1" d="M113.6,266.8c2.3,1.8,4,2.8,5.4,4.3c2.1,2.2,1.7,4.5-0.9,6c-6.6,3.9-5.6,10.1-4.9,16c0.7,5.3,0.2,10.2-1.8,14.9
	c-0.5,0.1-1.1,0.2-1.6,0.3c-2.7-7.5-5.5-15.1-8.1-22.7c-2.9-8.5-5.5-17-8.5-25.4c-2.1-5.8-5.3-6.3-11-3.4c-7.8,4-15.9,7.6-23.9,11.3
	c-3.4,1.5-5.2,3.6-4.8,7.6c0.5,4.7,1.1,9.5,0.9,14.3c-0.1,2.8-1.6,5.6-2.4,8.3c-0.7,0-1.4-0.1-2.1-0.1c-1.8-4.8-3.8-9.5-5.2-14.4
	c-2.4-8.5-2.6-8.8-11-7c-0.4,0.1-0.9-0.3-1.8-0.6c0.5-1.2,0.8-2.4,1.4-3.3c3.4-4.6,3.2-7.3-0.9-11.6c-2.7-2.9-5.4-5.8-7.9-8.9
	c-0.9-1.1-1-2.8-1.5-4.2c1.8,0.1,3.9-0.4,5.4,0.3c4.5,2.4,9,4.8,12.9,8c4.4,3.6,8.2,2.6,12.1,0c7.4-4.9,14.6-9.9,21.8-14.9
	c3.7-2.5,4.4-6.2,1.6-9.8c-3.8-4.9-8-9.6-12.2-14.3c-7.1-8.1-14.3-16.2-21.5-24.3c0.2-0.5,0.5-1,0.7-1.5c2,0.4,4.3,0.5,6,1.4
	c4.7,2.6,9,6.2,13.9,8.2c3.1,1.2,7.1,0.2,10.7,0.1c1.5,0,3.7-0.9,4.3-0.2c1.2,1.4,2.6,3.9,2.1,5.4c-1,3.3,0.1,4.9,2.7,6.4
	c4.8,2.8,9.4,5.9,14.3,8.6c3.4,1.9,6.7,1.2,10.1-0.6c7.6-4,15.3-7.9,23.3-11.2c2.9-1.2,6.6-1.1,9.8-0.6c3.7,0.6,5,2.9,2.9,6.7
	c-4.8,8.8-12.8,14.2-21.1,18.6c-7.1,3.7-10.4,8.2-9.6,16.2C114,256.3,113.6,261.9,113.6,266.8z"/>
</svg>
