<?xml version="1.0" encoding="utf-8"?>
<!-- Generator: Adobe Illustrator 23.0.3, SVG Export Plug-In . SVG Version: 6.00 Build 0)  -->
<svg version="1.1" id="Layer_1" xmlns="http://www.w3.org/2000/svg" xmlns:xlink="http://www.w3.org/1999/xlink" x="0px" y="0px"
	 viewBox="0 0 72 72" style="enable-background:new 0 0 72 72;" xml:space="preserve">
<style type="text/css">
	.st0{fill:#F9BD46;}
	.st1{fill:#FEFEFE;}
	.st2{fill:#F9BA3A;}
</style>
<g>
	<path class="st0" d="M69.4,12.1c0,0.2,0,0.3,0,0.5c-0.1,0.1-0.1,0.2-0.1,0.3c0,5.1,0,10.3,0,15.4c0,0.1,0,0.2,0.1,0.3
		c0,0.2,0,0.4,0,0.6c-0.1,0.5-0.1,1-0.1,1.4c-0.1,0.9-0.4,1.8-0.8,2.7c-0.7,1.6-1.6,3-2.9,4.1C64,39,62.2,39.9,60,40.2
		c-0.2,0-0.3,0.1-0.5,0.1c-0.1,0-0.3,0-0.3-0.1c-0.1-0.1-0.2-0.1-0.3-0.1c-0.5,0-1.1,0-1.6,0c0.6,0,1.2,0,1.9,0
		c0.2,0.2,0,0.2-0.1,0.2c-0.2,0-0.4,0-0.7,0c-0.3,0-0.7,0-1,0c-0.3,0-0.6,0.1-0.7,0.5c-0.4,1-0.8,2.1-1.4,3c-0.9,1.6-1.9,3-3.1,4.4
		c-1.6,1.7-3.4,3.2-5.4,4.4c-1.4,0.8-2.8,1.5-4.4,1.9c-0.6,0.2-0.6,0.3-0.6,0.9c0.1,1.9,0.3,3.8,0.5,5.7c0.1,0.5,0.2,1,0.3,1.5
		c0.1,0.4,0.2,0.5,0.7,0.5c0.4,0,0.9,0,1.3,0c1.3,0,2.3,0.6,3.2,1.5c1,1,1.4,2.2,1.5,3.5c0.1,0.7-0.2,1.3-0.1,2c0.1,0.5,0.1,1,0,1.5
		c0,0.3-0.1,0.3-0.4,0.3c0,0-0.1,0-0.1,0c-8.4,0-16.7,0-25.1,0c-0.1,0-0.2,0-0.3,0c-0.2-0.1-0.1-0.2-0.1-0.3c0-0.8,0-1.7,0-2.5
		c0-0.4,0-0.7-0.2-1.1c0-0.8,0.3-1.6,0.7-2.3c0.7-1.3,1.8-2.2,3.3-2.5c0.5-0.1,1,0,1.6,0c1,0,1,0,1.2-1c0.3-1.5,0.5-3.1,0.6-4.6
		c0.1-0.8,0.1-1.6,0.2-2.3c0-0.4-0.1-0.5-0.4-0.6c-1-0.3-2-0.7-3-1.2c-1.9-0.9-3.6-2.1-5.2-3.5c-1-0.9-1.9-1.8-2.7-2.9
		c-0.7-0.9-1.4-1.9-2-3c-0.6-1.1-1.1-2.2-1.5-3.3c-0.1-0.3-0.3-0.4-0.6-0.4c-0.5,0-1.1,0-1.6,0c-0.1,0-0.4,0-0.2-0.3
		c0.6,0,1.3,0,1.7,0c-0.4,0-1,0-1.5,0c-0.1,0-0.2,0-0.2,0.1c-0.1,0.1-0.3,0.1-0.4,0.1C10.3,40,8.3,39,6.5,37.3c-2-1.9-3.2-4.3-3.6-7
		c-0.2-1-0.1-2.1-0.1-3.1c0-4.9,0-9.7,0-14.6c0-2.7,1.3-4.7,3.7-6C7.3,6.3,8,6.1,8.8,6.1c0.6,0,1.2,0,1.8,0c0.5,0,0.6-0.1,0.7-0.7
		c0.1-1.8,0.8-3.3,2.2-4.4c0.8-0.6,1.6-0.9,2.6-0.9c0.3,0,0.7,0,1,0c12.8,0,25.5,0,38.3,0c0.4,0,0.8,0,1.2,0c1.4,0,2.4,0.8,3.3,1.8
		c0.9,1,1.2,2.3,1.3,3.6c0,0.5,0.1,0.6,0.6,0.6c0.5,0,1,0,1.6,0c2.5,0,4.2,1.3,5.4,3.3c0.4,0.7,0.7,1.5,0.6,2.3
		C69.3,11.9,69.3,12,69.4,12.1z"/>
	<path class="st1" d="M56.1,5.1c0.3,0.2,0.4,0.5,0.4,0.8c-0.2,2.4-0.4,4.7-0.6,7.1c-0.2,2-0.3,3.9-0.5,5.9c-0.3,3.3-0.4,6.6-0.8,9.9
		c-0.4,3.2-0.9,6.4-2,9.5c-1,2.7-2.3,5.1-4.3,7.1c-2,2-4.4,3.5-7.1,4.3c-2.2,0.7-4.5,0.9-6.8,0.7c-6.6-0.8-11.3-4.4-14-10.5
		c-1.1-2.4-1.7-5-2.2-7.6c-0.5-2.7-0.7-5.4-0.9-8.1c-0.2-3-0.5-6-0.7-9c-0.2-2.4-0.4-4.8-0.6-7.2C16,7.3,15.9,6.7,15.8,6
		c0-0.3,0-0.6,0.2-0.9C16.2,5.1,16.4,5,16.5,5c13.1,0,26.2,0,39.3,0C55.9,5,56,5,56.1,5.1z"/>
	<path class="st1" d="M10.3,11.1c0.4,0,0.8,0,1.3,0c0.2,0,0.3,0.1,0.3,0.3c0.2,1.8,0.3,3.5,0.4,5.3c0.1,1.6,0.3,3.1,0.4,4.7
		c0.1,1.3,0.1,2.5,0.3,3.8c0.1,1.4,0.2,2.8,0.4,4.2c0.1,1.2,0.3,2.3,0.5,3.5c0.1,0.7,0.2,1.4,0.4,2.1c0.1,0.3,0,0.3-0.3,0.3
		c-2,0-3.6-0.8-4.8-2.2c-1.2-1.4-1.8-3.1-1.8-5c0-5,0-10,0-15.1c0-0.8,0.3-1.4,1-1.7c0.2-0.1,0.5-0.2,0.8-0.2
		C9.5,11.1,9.9,11.1,10.3,11.1z"/>
	<path class="st1" d="M63.9,11.2c0.8,0.4,1.2,1,1.2,1.9c0,5.1,0,10.1,0,15.2c0,2.3-0.9,4.2-2.7,5.7c-1.1,0.9-2.5,1.4-4,1.4
		c-0.2,0-0.3-0.1-0.2-0.3c0.3-1.5,0.5-2.9,0.7-4.4c0.2-1.7,0.4-3.4,0.5-5.1c0.1-1.1,0.2-2.3,0.2-3.4c0.1-1.3,0.2-2.5,0.3-3.8
		c0.1-1.1,0.2-2.1,0.2-3.2c0.1-0.7,0.1-1.4,0.2-2.1c0-0.3,0-0.5,0-0.8c0-0.4,0-0.8,0.1-1.2l0,0c0.1-0.1,0.2,0,0.3,0
		c0.9,0,1.8,0,2.7,0C63.6,11.1,63.7,11.1,63.9,11.2z"/>
	<path class="st2" d="M47.1,25.5c0,0.5-0.2,0.8-0.6,1.2c-1.3,1.2-2.7,2.5-4,3.7c-0.4,0.4-0.6,0.8-0.4,1.4c0.4,1.8,0.8,3.7,1.2,5.5
		c0.1,0.4,0.1,0.8,0,1.2c-0.3,0.9-1.2,1.2-1.9,0.7c-0.7-0.4-1.4-0.9-2.1-1.4c-0.9-0.6-1.8-1.3-2.7-1.9c-0.4-0.3-0.6-0.3-1,0
		c-1.4,1-2.9,2-4.3,3c-0.4,0.3-0.9,0.5-1.4,0.4c-0.7-0.2-1.1-1-1-1.8c0.5-2.1,0.9-4.1,1.4-6.2c0.1-0.3,0-0.6-0.2-0.8
		c-1.3-1.3-2.7-2.5-4-3.8c-0.6-0.5-0.9-1.1-0.6-1.9c0.2-0.6,0.6-1,1.3-1c1.8-0.1,3.6-0.3,5.4-0.4c0.4,0,0.7-0.2,0.8-0.6
		c0.6-1.8,1.3-3.6,2-5.4c0.2-0.5,0.4-0.9,0.9-1.1c0.8-0.3,1.5,0,1.8,0.8c0.3,0.8,0.6,1.6,0.9,2.4c0.4,1.1,0.8,2.2,1.2,3.4
		c0.1,0.4,0.3,0.6,0.8,0.6c1.4,0.1,2.8,0.2,4.2,0.3c0.4,0,0.8,0.1,1.2,0.1C46.6,24,47.1,24.6,47.1,25.5z"/>
</g>
</svg>
