<?xml version="1.0" encoding="utf-8"?>
<!-- Generator: Adobe Illustrator 23.0.3, SVG Export Plug-In . SVG Version: 6.00 Build 0)  -->
<svg version="1.1" id="Layer_1" xmlns="http://www.w3.org/2000/svg" xmlns:xlink="http://www.w3.org/1999/xlink" x="0px" y="0px"
	 viewBox="0 0 72 72" style="enable-background:new 0 0 72 72;" xml:space="preserve">
<style type="text/css">
	.st0{fill:#FDAF2F;}
</style>
<path class="st0" d="M36,14.3C36,14.3,36,14.3,36,14.3c2.4,0,4.8,0,7.3,0c5.4,0,10.9,0,16.3,0c2.3,0,4.6,0.1,6.9-0.1
	c3.4-0.2,6-4.3,5.4-8.3C71.3,2.4,68.9,0,65.9,0C60,0,54,0,48.1,0c-5.3,0-10.6,0-15.9,0c-5.4,0-10.7,0-16.1,0C12.7,0,9.3,0,5.9,0
	c-2.5,0-4.4,1.5-5.4,4.3C-0.5,7.1,0,9.8,1.7,12c1.2,1.6,2.8,2.3,4.5,2.2c4.6,0,9.1,0,13.7,0C25.3,14.3,30.7,14.3,36,14.3z"/>
<path class="st0" d="M36,57.8C36,57.8,36,57.8,36,57.8c-5.4,0-10.8,0-16.2,0c-4.6,0-9.2,0-13.8,0c-4.1,0-6.9,4.5-5.8,9.1
	C1,70,3.3,72,6.1,72c7.1,0,14.3,0,21.4,0c9.6,0,19.2,0,28.8,0c3.2,0,6.3,0,9.5,0c2,0,3.6-0.9,4.8-2.8c1.5-2.3,1.7-4.9,0.6-7.5
	c-1.1-2.6-2.9-3.9-5.4-4c-4.2,0-8.4,0-12.6,0C47.6,57.8,41.8,57.8,36,57.8z"/>
<path class="st0" d="M36,43.1C36,43.1,36,43.1,36,43.1c9,0,18,0,27,0c1.3,0,2.6,0.1,4-0.1c3-0.4,5.2-3.8,5-7.3
	c-0.2-3.9-2.7-6.8-5.8-6.8c-4,0-8,0-11.9,0c-10.2,0-20.4,0-30.7,0c-5.9,0-11.8,0-17.8,0c-3.6,0-6.4,4.2-5.7,8.4
	c0.6,3.5,2.9,5.8,5.9,5.8C16,43.1,26,43.1,36,43.1z"/>
</svg>
