<?xml version="1.0" encoding="utf-8"?>
<!-- Generator: Adobe Illustrator 23.0.3, SVG Export Plug-In . SVG Version: 6.00 Build 0)  -->
<svg version="1.1" id="Layer_1" xmlns="http://www.w3.org/2000/svg" xmlns:xlink="http://www.w3.org/1999/xlink" x="0px" y="0px"
	 viewBox="0 0 1024 1024" style="enable-background:new 0 0 1024 1024;" xml:space="preserve">
<style type="text/css">
	.st0{fill:#17E64B;}
</style>
<path class="st0" d="M270.4,929.8c-6.4,0-12.7-1.4-18.6-4.3c-13.5-6.6-21.8-19.7-21.9-34.3L229,733.9c-72.4-1.1-131-59-131-130
	V291.8c0-71.7,59.7-130,133-130h562.1c73.4,0,133,58.3,133,130v312.1c0,71.7-59.7,130-133,130H543L295.8,921.3
	C288.4,926.9,279.5,929.8,270.4,929.8z M259.3,873.6C259.3,873.7,259.3,873.7,259.3,873.6C259.3,873.7,259.3,873.7,259.3,873.6z
	 M231.1,221.8c-40.3,0-73,31.4-73,70v312.1c0,38.6,32.8,70,73,70h27.8c16.5,0,29.9,13.3,30,29.8l0.8,146.9L514.8,680
	c5.2-4,11.6-6.1,18.1-6.1h260.2c40.3,0,73-31.4,73-70V291.8c0-38.6-32.8-70-73-70H231.1L231.1,221.8z"/>
<path class="st0" d="M288.3,413.6l255.3,0.2c16.6,0,30-13.4,30-30s-13.4-30-30-30l-255.3-0.2c-16.6,0-30,13.4-30,30
	C258.3,400.1,271.8,413.5,288.3,413.6z M735.7,482H288.4c-16.6,0-30,13.4-30,30c0,16.6,13.4,30,30,30l447.3,0.1
	c16.6,0,30-13.4,30-30C765.6,495.5,752.2,482.1,735.7,482L735.7,482z"/>
</svg>
