<?xml version="1.0" encoding="utf-8"?>
<!-- Generator: Adobe Illustrator 23.0.3, SVG Export Plug-In . SVG Version: 6.00 Build 0)  -->
<svg version="1.1" id="Layer_1" xmlns="http://www.w3.org/2000/svg" xmlns:xlink="http://www.w3.org/1999/xlink" x="0px" y="0px"
	 viewBox="0 0 846.7 846.7" style="enable-background:new 0 0 846.7 846.7;" xml:space="preserve">
<style type="text/css">
	.st0{fill:#C4C4C4;}
</style>
<g id="Layer_x0020_1">
	<path class="st0" d="M95.1,67.6h425.4c11.5,0,20.8,9.3,20.8,20.8v49.5h69.3c89,0,161.8,72.8,161.8,161.8v437.8h46.2
		c27.4,0,27.4,41.6,0,41.6c-263.5,0-527,0-790.6,0c-27.4,0-27.4-41.6,0-41.6h46.2V88.4C74.3,76.9,83.6,67.6,95.1,67.6L95.1,67.6z
		 M594.6,349.5c-27.4,0-27.4-41.6,0-41.6h82.9c27.4,0,27.4,41.6,0,41.6L594.6,349.5L594.6,349.5z M594.6,557.5
		c-27.4,0-27.4-41.6,0-41.6h82.9c27.4,0,27.4,41.6,0,41.6H594.6z M594.6,418.8c-27.4,0-27.4-41.6,0-41.6h82.9
		c27.4,0,27.4,41.6,0,41.6H594.6z M594.6,488.1c-27.4,0-27.4-41.6,0-41.6h82.9c27.4,0,27.4,41.6,0,41.6L594.6,488.1L594.6,488.1z
		 M203.8,325.5h208c29.8,0,54.2,24.3,54.2,54.1c0,29.8-24.3,54.2-54.2,54.2h-208c-29.8,0-54.2-24.4-54.2-54.1
		C149.6,349.9,174.1,325.5,203.8,325.5L203.8,325.5z M411.8,367.1h-208c-6.9,0-12.6,5.6-12.6,12.5c0,6.9,5.6,12.5,12.6,12.5h208
		c6.9,0,12.5-5.7,12.5-12.5C424.3,372.8,418.6,367.1,411.8,367.1z M345.6,737.5V633.4H270v104.1H345.6z M228.4,737.5V612.6
		c0-11.5,9.3-20.8,20.8-20.8h117.2c11.5,0,20.8,9.3,20.8,20.8v124.9h112.5V109.2H115.9v628.3H228.4L228.4,737.5z M203.8,179.2h208
		c29.8,0,54.2,24.3,54.2,54.2c0,29.8-24.3,54.1-54.2,54.1h-208c-29.8,0-54.2-24.4-54.2-54.1C149.6,203.6,174.1,179.2,203.8,179.2
		L203.8,179.2z M411.8,220.8h-208c-6.9,0-12.6,5.6-12.6,12.6c0,6.9,5.6,12.5,12.6,12.5h208c6.9,0,12.5-5.7,12.5-12.5
		S418.6,220.8,411.8,220.8z M541.3,179.5v558h189.5V299.7c0-66.1-54.2-120.2-120.2-120.2H541.3L541.3,179.5z"/>
</g>
</svg>
